<svg width="73" height="73" viewBox="0 0 73 73" xmlns="http://www.w3.org/2000/svg">
<path d="M44.55 47.4406H28.4498C27.2363 47.4406 26.2493 48.4276 26.2493 49.6411V54.5791C26.2493 55.7926 27.2363 56.7798 28.4498 56.7798H44.5502C45.7637 56.7798 46.7509 55.7928 46.7509 54.5791V49.6411C46.7506 48.4278 45.7635 47.4406 44.55 47.4406ZM43.9213 53.9505H29.0784V50.27H43.9213V53.9505Z"/>
<path d="M72.2837 35.2109L72.3064 35.1995L61.6978 14.2256C60.8402 12.5304 59.1279 11.4775 57.2286 11.4775H55.2124V9.5277C55.2124 8.74637 54.5791 8.11304 53.7977 8.11304H19.2024C18.4211 8.11304 17.7878 8.74637 17.7878 9.5277V11.4775H15.7716C13.8723 11.4775 12.1599 12.5304 11.3023 14.2256L0.693643 35.1995L0.716313 35.2109C0.261916 35.9593 0 36.837 0 37.7746V59.9325C0 62.6646 2.22279 64.8872 4.95487 64.8872H68.0453C70.7774 64.8872 73 62.6644 73 59.9325V37.7746C73 36.837 72.7381 35.9593 72.2837 35.2109ZM55.2122 14.6212H57.2284C57.9355 14.6212 58.5729 15.0134 58.8925 15.6447L67.5798 32.82H61.6726V27.5352C61.6726 26.7538 61.0393 26.1205 60.2579 26.1205H58.5078V18.5315C58.5078 17.7502 57.8745 17.1168 57.0931 17.1168H55.2122V14.6212ZM58.8434 28.9497V32.8198H51.3782C50.0972 32.8198 48.9295 33.5745 48.4033 34.7421L46.365 39.2632C46.3456 39.3059 46.303 39.3335 46.2561 39.3335H26.7441C26.6972 39.3335 26.6546 39.3059 26.6352 39.2631L24.597 34.7422C24.0706 33.5745 22.9029 32.8198 21.622 32.8198H14.1567V28.9497H58.8434ZM20.6171 10.9424H52.3829V17.1167H20.6171V10.9424ZM55.6785 19.946V26.1204H17.3215V19.946H55.6785ZM14.1075 15.6447C14.4269 15.0132 15.0645 14.6212 15.7716 14.6212H17.7878V17.1167H15.9069C15.1255 17.1167 14.4922 17.75 14.4922 18.5314V26.1204H12.7421C11.9607 26.1204 11.3274 26.7537 11.3274 27.535V32.8198H5.42025L14.1075 15.6447ZM68.0453 61.7434H4.95487C3.95626 61.7434 3.14371 60.9308 3.14371 59.9325V37.7746C3.14371 36.7761 3.95612 35.9637 4.95487 35.9637H21.622C21.6687 35.9637 21.7117 35.9913 21.731 36.0343L23.7692 40.5551C24.2956 41.7228 25.4632 42.4772 26.7441 42.4772H46.2559C47.5368 42.4772 48.7045 41.7227 49.2308 40.5553L51.2691 36.0343V36.0341C51.2885 35.9913 51.3311 35.9637 51.378 35.9637H68.0451C69.0437 35.9637 69.856 36.7762 69.856 37.7746V59.9325H69.8562C69.8563 60.9311 69.0439 61.7434 68.0453 61.7434Z"/>
</svg>
