<svg width="70" height="70" viewBox="0 0 70 70" xmlns="http://www.w3.org/2000/svg">
<path d="M68.1848 12.2274H25.0429V10.5216C25.0429 8.0196 23.0074 5.98413 20.5055 5.98413H13.4645C10.9625 5.98413 8.92705 8.0196 8.92705 10.5216V12.2274H1.81494C0.812519 12.2274 0 13.0402 0 14.0425C0 15.0448 0.812519 15.8574 1.81494 15.8574H8.92678V17.5627C8.92678 20.0647 10.9622 22.1001 13.4642 22.1001H20.5054C23.0073 22.1001 25.0428 20.0647 25.0428 17.5627V15.8574H68.1848C69.1872 15.8574 69.9997 15.0446 69.9997 14.0425C69.9999 13.0402 69.1872 12.2274 68.1848 12.2274ZM21.413 17.5627C21.413 18.0631 21.0059 18.4702 20.5055 18.4702H13.4643C12.9639 18.4702 12.5568 18.0631 12.5568 17.5627V10.5216C12.5568 10.0212 12.9639 9.61401 13.4643 9.61401H20.5055C21.0059 9.61401 21.413 10.0212 21.413 10.5216V17.5627Z" />
<path d="M68.1851 32.4428H61.0731V30.7364C61.0731 28.2344 59.0376 26.199 56.5357 26.199H49.4945C46.9926 26.199 44.9571 28.2344 44.9571 30.7364V32.4428H1.81494C0.812519 32.4428 0 33.2554 0 34.2577C0 35.26 0.812519 36.0727 1.81494 36.0727H44.957V37.7774C44.957 40.2794 46.9924 42.3148 49.4944 42.3148H56.5355C59.0375 42.3148 61.0729 40.2794 61.0729 37.7774V36.0727H68.1849C69.1873 36.0727 69.9999 35.2599 69.9999 34.2577C70 33.2554 69.1875 32.4428 68.1851 32.4428ZM57.4431 37.7775C57.4431 38.2779 57.0359 38.6851 56.5355 38.6851H49.4944C48.994 38.6851 48.5868 38.2779 48.5868 37.7775V30.7364C48.5868 30.236 48.994 29.8289 49.4944 29.8289H56.5355C57.0359 29.8289 57.4431 30.236 57.4431 30.7364V37.7775Z" />
<path d="M68.1851 54.1424H37.7934V52.4371C37.7934 49.9351 35.758 47.8997 33.256 47.8997H26.2149C23.7129 47.8997 21.6774 49.9351 21.6774 52.4371V54.1424H1.81494C0.812519 54.1424 0 54.9552 0 55.9573C0 56.9596 0.812519 57.7723 1.81494 57.7723H21.6773V59.4781C21.6773 61.9801 23.7128 64.0155 26.2147 64.0155H33.2559C35.7578 64.0155 37.7933 61.9801 37.7933 59.4781V57.7723H68.1849C69.1873 57.7723 69.9999 56.9595 69.9999 55.9573C70 54.9549 69.1875 54.1424 68.1851 54.1424ZM34.1634 59.4782C34.1634 59.9786 33.7563 60.3858 33.2559 60.3858H26.2147C25.7143 60.3858 25.3072 59.9786 25.3072 59.4782V52.4371C25.3072 51.9367 25.7143 51.5295 26.2147 51.5295H33.2559C33.7563 51.5295 34.1634 51.9367 34.1634 52.4371V59.4782Z" />
</svg>
