<svg width="70" height="70" viewBox="0 0 70 70" xmlns="http://www.w3.org/2000/svg">
<path d="M64.5595 27.5777C65.827 26.3421 66.2745 24.5288 65.7276 22.8454C65.1806 21.162 63.7527 19.9582 62.0011 19.7038L46.6845 17.4781C46.3838 17.4345 46.1239 17.2457 45.9894 16.9731L39.1397 3.09407C38.3564 1.50677 36.7702 0.520752 35.0001 0.520752C33.23 0.520752 31.6438 1.50677 30.8605 3.09407L24.0108 16.9732C23.8761 17.2457 23.6163 17.4345 23.3156 17.4783L7.99924 19.7038C6.2476 19.9582 4.81984 21.162 4.2727 22.8454C3.72555 24.5288 4.17316 26.3421 5.44082 27.5777L16.5239 38.381C16.7414 38.5932 16.8408 38.8988 16.7894 39.1984L14.173 54.4529C13.8739 56.1976 14.5775 57.9275 16.0095 58.9679C17.4414 60.0086 19.3046 60.143 20.8712 59.3195L34.5705 52.1173C34.8396 51.9758 35.1607 51.9758 35.4299 52.1173L49.1294 59.3195C49.8108 59.6777 50.5482 59.8548 51.2819 59.8546C52.2349 59.8546 53.1818 59.5561 53.9907 58.9678C55.4227 57.9272 56.1264 56.1971 55.8271 54.4528L53.2108 39.1982C53.1595 38.8987 53.2587 38.5931 53.4763 38.3809L64.5595 27.5777ZM49.5712 39.8228L52.1876 55.0776C52.2751 55.5881 51.9599 55.8791 51.8203 55.9804C51.6806 56.0816 51.3063 56.2918 50.848 56.0506L37.1485 48.8484C36.476 48.495 35.7382 48.318 35.0004 48.318C34.2625 48.318 33.5246 48.495 32.8522 48.8482L19.1529 56.0503C18.6943 56.2913 18.3201 56.0815 18.1805 55.9802C18.041 55.8789 17.7257 55.5878 17.8133 55.0773L20.4297 39.8228C20.6866 38.325 20.1904 36.7976 19.102 35.7368L8.01893 24.9334C7.64801 24.5716 7.73195 24.1509 7.78541 23.9869C7.83859 23.8227 8.01811 23.4329 8.53066 23.3585L23.8469 21.1329C25.3506 20.9144 26.6501 19.9705 27.3228 18.6076L34.1725 4.72841C34.4018 4.26397 34.8278 4.2138 35.0005 4.2138C35.1729 4.2138 35.5989 4.26384 35.8283 4.72841V4.72855L42.6781 18.6077C43.3506 19.9706 44.65 20.9145 46.1537 21.133L61.4702 23.3587C61.9828 23.433 62.1621 23.8228 62.2155 23.987C62.2688 24.1512 62.3529 24.572 61.9818 24.9335L50.8987 35.7369C49.8104 36.7976 49.3143 38.325 49.5712 39.8228Z" />
<path d="M56.572 3.09322C55.7468 2.49384 54.5922 2.67677 53.9928 3.50173L52.0327 6.19947C51.4333 7.02443 51.6161 8.17929 52.4412 8.77867C52.7692 9.01669 53.1489 9.1314 53.5251 9.1314C54.0962 9.1314 54.6592 8.8674 55.0204 8.37029L56.9806 5.67255C57.5799 4.84746 57.3971 3.69259 56.572 3.09322Z" />
<path d="M17.9595 6.18853L15.9994 3.49079C15.4002 2.66611 14.2454 2.48318 13.4202 3.08228C12.5952 3.68165 12.4123 4.83652 13.0117 5.66148L14.9718 8.35921C15.3332 8.85673 15.8962 9.1206 16.4674 9.1206C16.8438 9.1206 17.2236 9.00589 17.5512 8.76773C18.3761 8.16849 18.559 7.01363 17.9595 6.18853Z" />
<path d="M6.7749 41.9492C6.45977 40.9795 5.41811 40.4486 4.44809 40.7637L1.27662 41.7943C0.306603 42.1094 -0.224002 43.1514 0.0911345 44.1211C0.344611 44.9016 1.06854 45.3977 1.84688 45.3977C2.03596 45.3977 2.22832 45.3683 2.41795 45.3066L5.58942 44.276C6.5593 43.9609 7.09004 42.9192 6.7749 41.9492Z" />
<path d="M35.0006 62.4512C33.9808 62.4512 33.1541 63.2779 33.1541 64.2977V67.6325C33.1541 68.6523 33.9808 69.4791 35.0006 69.4791C36.0204 69.4791 36.8471 68.6523 36.8471 67.6325V64.2977C36.8471 63.2778 36.0205 62.4512 35.0006 62.4512Z" />
<path d="M68.7235 41.7969L65.552 40.7663C64.5824 40.4514 63.5403 40.9819 63.2252 41.9519C62.91 42.922 63.4406 43.9636 64.4107 44.2788L67.5821 45.3093C67.7718 45.3709 67.964 45.4001 68.1531 45.4001C68.9315 45.4001 69.6555 44.904 69.9089 44.1236C70.2241 43.1537 69.6933 42.112 68.7235 41.7969Z" />
</svg>
