<svg width="70" height="70" viewBox="0 0 70 70" xmlns="http://www.w3.org/2000/svg">
<path d="M37.0436 41.4168C35.5996 39.3738 33.2804 38.1255 30.7938 38.031C30.7411 38.0251 30.6878 38.0218 30.6337 38.0218C27.4707 38.0218 24.8571 35.6314 24.5006 32.5627C25.4113 31.8994 26.2516 31.0578 26.9963 30.0496C28.5022 28.0107 29.4798 25.4631 29.8422 22.7081C29.9532 22.5874 30.0468 22.4469 30.1139 22.2869C30.7515 20.7685 31.0749 19.1474 31.0749 17.4687C31.0749 11.0127 26.1938 5.7605 20.1943 5.7605C18.6427 5.7605 17.1373 6.11296 15.7143 6.80845C15.1823 6.85329 14.661 6.94899 14.1605 7.09391C9.14482 8.54299 6.30997 14.6076 7.84135 20.6126C7.99543 21.2168 8.19135 21.811 8.42405 22.3785C8.48748 22.5335 8.57635 22.6697 8.68108 22.7887C9.25871 27.0299 11.2661 30.5588 14.0116 32.555C13.6587 35.6276 11.0432 38.0221 7.87745 38.0221C7.82877 38.0221 7.78065 38.0247 7.73307 38.0293C3.44325 38.181 0 41.7155 0 46.0416V54.674C0 55.4794 0.652831 56.1322 1.45824 56.1322H27.223C28.0282 56.1322 28.6812 55.4794 28.6812 54.674C28.6812 53.8686 28.0282 53.2158 27.223 53.2158H2.91634V46.0415C2.91634 43.2271 5.20583 40.9378 8.02004 40.9378C8.06871 40.9378 8.11684 40.9352 8.16442 40.9305C9.21483 40.8977 10.2207 40.6863 11.1528 40.325L18.0567 50.2894C18.329 50.6825 18.7769 50.9172 19.2553 50.9172C19.7337 50.9172 20.1816 50.6826 20.4539 50.2894L27.3579 40.325C28.2902 40.6863 29.2959 40.8977 30.3463 40.9305C30.3939 40.9352 30.442 40.9378 30.4907 40.9378C32.1457 40.9378 33.7051 41.746 34.662 43.1C34.9461 43.5019 35.3964 43.7166 35.854 43.7166C36.145 43.7166 36.4388 43.6296 36.6944 43.449C37.3522 42.9844 37.5083 42.0744 37.0436 41.4168ZM14.9696 9.89514C15.3521 9.78467 15.7567 9.71905 16.1722 9.70032C16.3863 9.69074 16.5952 9.63414 16.7849 9.53448C17.8686 8.96518 19.0154 8.67643 20.1937 8.67643C24.4963 8.67643 28.0105 12.4627 28.1513 17.1751C27.2744 16.512 26.1835 16.1179 25.002 16.1179H17.376C16.9962 16.1179 16.6355 15.9987 16.3335 15.7732C16.0749 15.5803 15.8753 15.3214 15.756 15.0237C15.4805 14.3382 14.799 13.91 14.063 13.9565C13.3225 14.0039 12.6995 14.5185 12.5129 15.2363C12.1409 16.6654 11.4463 17.9964 10.502 19.1266C9.7457 14.8985 11.6502 10.8542 14.9696 9.89514ZM11.5498 22.2446C12.8235 21.0771 13.8542 19.662 14.5739 18.0993C14.5788 18.103 14.5839 18.1067 14.589 18.1104C15.399 18.715 16.3626 19.0344 17.3758 19.0344H25.0018C25.9179 19.0344 26.709 19.5703 27.0846 20.3437C27.0749 23.373 26.2118 26.2026 24.6502 28.3165C23.1776 30.3098 21.2616 31.4077 19.255 31.4077C17.398 31.4077 15.59 30.4483 14.1642 28.7065C12.7809 27.0168 11.8655 24.7424 11.5498 22.2446ZM19.2552 46.8985L13.6747 38.8442C15.1718 37.602 16.2631 35.8889 16.7245 33.9349C17.537 34.1892 18.3844 34.3243 19.255 34.3243C20.121 34.3243 20.9691 34.1929 21.787 33.9391C22.249 35.8912 23.3399 37.6026 24.8359 38.844L19.2552 46.8985Z" />
<path d="M62.2675 46.1363C62.2199 46.1316 62.1718 46.129 62.1231 46.129C58.9557 46.129 56.3392 43.7322 55.9884 40.6572C57.7742 39.3567 59.2467 37.4068 60.2172 35.0354C60.3561 35.4899 60.7117 35.8568 61.1796 36.0019C61.3218 36.0459 61.4672 36.0674 61.6112 36.0674C62.0531 36.0674 62.4807 35.866 62.762 35.5049C64.7965 32.892 65.854 29.4912 65.7402 25.929C65.6284 22.4345 64.4 19.1539 62.2809 16.6919C60.1113 14.1711 57.247 12.7682 54.2128 12.7392C54.0519 12.7327 53.6517 12.7465 53.5871 12.7505C52.0282 12.0433 50.381 11.713 48.6846 11.7669C45.1812 11.8789 41.9586 13.625 39.6107 16.6837C37.3292 19.6561 36.1442 23.533 36.2743 27.6007C36.2963 28.2899 36.3507 28.9245 36.4387 29.5288C36.6762 31.2623 37.1538 32.9224 37.858 34.4631C38.0821 34.9535 38.5586 35.2803 39.0967 35.3126C39.633 35.345 40.1468 35.0777 40.4282 34.6176C40.5455 34.4258 40.6963 34.1867 40.8627 33.9523C41.5128 35.9272 42.5066 37.7016 43.7684 39.1024C44.3066 39.7 44.8879 40.2198 45.5002 40.6632C45.1466 43.7351 42.5313 46.1288 39.3662 46.1288C39.3175 46.1288 39.2694 46.1314 39.2218 46.136C34.9324 46.288 31.4893 49.8229 31.4893 54.1487V62.7811C31.4893 63.5865 32.1422 64.2393 32.9475 64.2393H68.5416C69.3469 64.2393 69.9998 63.5865 69.9998 62.7811V54.1487C70.0001 49.8232 66.5569 46.2885 62.2675 46.1363ZM39.6639 30.8471C39.5201 30.2854 39.4074 29.7094 39.3266 29.1208C39.2528 28.6139 39.208 28.0862 39.1895 27.5077C39.081 24.112 40.0522 20.8986 41.9244 18.4597C43.7302 16.107 46.1641 14.7655 48.7779 14.682C48.8652 14.6791 50.7448 14.5733 52.6635 15.5402C52.878 15.6482 53.1252 15.6984 53.366 15.6915C53.3936 15.6907 54.1421 15.6553 54.1639 15.6556C56.3541 15.6701 58.4516 16.7139 60.0705 18.5946C61.7564 20.5535 62.7348 23.1914 62.8253 26.0224C62.8744 27.5601 62.6583 29.0548 62.2009 30.4301C62.0631 30.0628 61.9094 29.7012 61.7403 29.3456C60.3323 26.3501 57.9623 24.0299 55.0668 22.8121C54.7 22.6579 54.2862 22.6602 53.9213 22.8185C53.5563 22.9767 53.2719 23.2772 53.134 23.6505C52.9398 24.1749 52.7047 24.6858 52.4345 25.1689C51.6711 26.5341 50.1319 27.3464 48.4203 27.2865C48.1634 27.2777 47.9027 27.2773 47.6457 27.2855C46.3847 27.3259 45.1551 27.5662 43.9844 28.0022C42.828 28.4386 40.8847 29.5336 39.6639 30.8471ZM43.2513 31.6407C43.8042 31.2703 44.3925 30.9653 45.0085 30.7325C45.8759 30.4096 46.7945 30.2305 47.7388 30.2002C47.9316 30.194 48.1268 30.1942 48.3193 30.2009C51.1349 30.2973 53.681 28.9151 54.98 26.5921C55.0598 26.4492 55.1375 26.3042 55.2125 26.1578C56.5425 26.9771 57.6793 28.132 58.5341 29.5336C58.5267 29.5768 58.5204 29.6201 58.5169 29.6647C58.2932 32.4315 57.3388 34.9706 55.8293 36.8144C54.4034 38.5563 52.5954 39.5156 50.7384 39.5156C47.3054 39.5153 44.2514 36.2519 43.2513 31.6407ZM48.2146 42.0398C49.0353 42.2963 49.8817 42.4316 50.7384 42.4316C51.6112 42.4316 52.4606 42.2957 53.2752 42.0401C53.8609 44.5233 55.4667 46.6155 57.6253 47.8499C56.7833 50.8926 53.9849 53.0805 50.7451 53.0805C47.505 53.0805 44.7068 50.8925 43.8649 47.8496C46.0233 46.6155 47.629 44.5231 48.2146 42.0398ZM67.0838 61.3232H34.406V54.1489C34.406 51.3349 36.6955 49.0452 39.5097 49.0452C39.5584 49.0452 39.6065 49.0426 39.6541 49.038C40.1563 49.0223 40.6486 48.967 41.1272 48.8727C42.3939 53.0311 46.2696 55.9971 50.745 55.9971C55.2203 55.9971 59.0959 53.0311 60.3628 48.8728C60.8414 48.9672 61.3337 49.0224 61.8357 49.038C61.8833 49.0426 61.9314 49.0452 61.9801 49.0452C64.7943 49.0452 67.0838 51.3347 67.0838 54.1489V61.3232Z" />
</svg>
