<svg width="70" height="70" viewBox="0 0 70 70" fill="none" xmlns="http://www.w3.org/2000/svg">
<path d="M61.4846 32.7909C61.4104 31.7608 60.5164 30.9875 59.4847 31.06C58.4544 31.1342 57.6794 32.0296 57.7535 33.0599C57.7996 33.6963 57.8227 34.3493 57.8227 35C57.8227 49.9107 45.6922 62.0412 30.7817 62.0412C15.8711 62.0412 3.74062 49.9106 3.74062 35C3.74062 20.0895 15.8711 7.95899 30.7818 7.95899C36.6868 7.95899 42.2949 9.82767 46.9994 13.3628C47.8253 13.9832 48.9975 13.8168 49.6181 12.9912C50.2388 12.1654 50.0724 10.9929 49.2466 10.3725C43.8888 6.34653 37.5037 4.21851 30.7817 4.21851C13.8087 4.21837 0 18.0271 0 35C0 51.973 13.8087 65.7816 30.7818 65.7816C47.7549 65.7816 61.5634 51.9731 61.5634 35C61.5634 34.2599 61.5367 33.5167 61.4846 32.7909Z" fill="white"/>
<path d="M67.8668 8.44505C65.0219 5.60035 60.3929 5.60035 57.548 8.44505L30.5994 35.3934L21.0463 25.8402C18.2015 22.9955 13.5725 22.9955 10.7276 25.8402C7.88278 28.685 7.88278 33.3141 10.7276 36.1589L27.1805 52.6118C28.1232 53.5544 29.3613 54.0257 30.5994 54.0257C31.8377 54.0257 33.0758 53.5544 34.0185 52.6118L67.8668 18.7635C70.7113 15.9188 70.7113 11.29 67.8668 8.44505ZM65.2218 16.1187L31.3734 49.9672C30.9468 50.3938 30.2523 50.3938 29.8257 49.9672L13.3729 33.5142C11.9864 32.1277 11.9864 29.872 13.3729 28.4856C14.066 27.7921 14.9764 27.4457 15.8871 27.4457C16.7978 27.4457 17.7084 27.7923 18.4014 28.4856L28.229 38.3132C28.8623 38.9463 29.7043 39.295 30.5996 39.295C31.4952 39.295 32.3373 38.9462 32.9704 38.313L60.1931 11.09C61.5792 9.70355 63.8353 9.70355 65.2218 11.09C66.6081 12.4765 66.6081 14.7322 65.2218 16.1187Z" fill="white"/>
</svg>
