<svg width="1042" height="561" viewBox="0 0 1042 561" fill="none" xmlns="http://www.w3.org/2000/svg">
<path d="M0.999634 162.078C8.35418 157.835 242.285 33.6561 394.751 113.99C547.216 194.325 602.658 325.858 784.259 345.093C929.539 360.481 1015.64 309.64 1040.54 282.296" stroke="#999999" stroke-width="1.6972"/>
<path d="M10.3336 205.238C17.6882 200.995 121.5 64.9363 262.934 93.7888C404.368 122.641 531.632 313.493 665.454 189.233C794.441 69.4622 949.453 122.075 949.453 122.075" stroke="#76BD01" stroke-width="1.6972"/>
<path d="M1027.13 415.528C1018.02 411.285 855.792 161.262 725.622 320.072C645.545 417.768 574.262 432.76 370.598 395.987C166.934 359.214 73.8704 417.768 73.8704 417.768" stroke="#76BD01" stroke-width="1.6972"/>
<g clip-path="url(#clip0)">
<path d="M827.444 489.197C823.337 491.316 819.034 493.145 814.789 494.969C799.105 501.596 783.186 508.28 766.337 510.555C734.693 514.768 702.04 503.224 670.95 510.428C644.907 516.442 623.369 534.873 597.926 543.081C586.096 546.897 573.787 548.392 561.368 548.392H559.764C558.226 548.372 556.7 548.334 555.185 548.276C542.593 547.803 529.949 545.938 517.606 543.554C478.631 536.051 438.963 522.295 409.166 496.972C495.929 481.11 674.653 456.763 827.444 489.197Z" fill="#EAE9D7"/>
<path d="M828.361 363.163V333.82H810.933V363.163H790.294V317.773H775.159V283.845H762.776V249H737.092V283.845H724.709V317.773H710.032V276.968H701.777V256.336H696.732V276.968H667.379V407.178H644.906V393.423H631.147V407.178H608.673V363.163H568.313V333.82H550.885V363.163H549.968V419.557H531.622V386.546H509.607V419.557H491.262V317.773H477.044V283.845H424.759V317.773H411V497.041H491.262H549.968H608.673H667.379H710.032H790.294H849V363.163H828.361Z" fill="#76B220"/>
<path opacity="0.4" d="M438.977 328.318H419.714V339.322H438.977V328.318Z" fill="white"/>
<path opacity="0.4" d="M462.826 339.322H482.089V328.318H462.826V339.322Z" fill="white"/>
<path opacity="0.4" d="M438.977 349.867H419.714V360.871H438.977V349.867Z" fill="white"/>
<path opacity="0.4" d="M462.826 360.871H482.089V349.867H462.826V360.871Z" fill="white"/>
<path opacity="0.4" d="M438.977 371.416H419.714V382.42H438.977V371.416Z" fill="white"/>
<path opacity="0.4" d="M462.826 382.419H482.089V371.416H462.826V382.419Z" fill="white"/>
<path opacity="0.4" d="M438.977 392.965H419.714V403.968H438.977V392.965Z" fill="white"/>
<path opacity="0.4" d="M462.826 403.968H482.089V392.965H462.826V403.968Z" fill="white"/>
<path opacity="0.4" d="M438.977 414.514H419.714V425.517H438.977V414.514Z" fill="white"/>
<path opacity="0.4" d="M462.826 425.517H482.089V414.514H462.826V425.517Z" fill="white"/>
<path opacity="0.4" d="M438.977 436.062H419.714V447.066H438.977V436.062Z" fill="white"/>
<path opacity="0.4" d="M462.826 447.066H482.089V436.062H462.826V447.066Z" fill="white"/>
<path opacity="0.4" d="M438.977 457.611H419.714V468.615H438.977V457.611Z" fill="white"/>
<path opacity="0.4" d="M462.826 468.615H482.089V457.611H462.826V468.615Z" fill="white"/>
<path opacity="0.4" d="M543.088 430.561H498.142V436.062H543.088V430.561Z" fill="white"/>
<path opacity="0.4" d="M543.088 438.813H498.142V444.315H543.088V438.813Z" fill="white"/>
<path opacity="0.4" d="M543.088 447.066H498.142V452.568H543.088V447.066Z" fill="white"/>
<path opacity="0.4" d="M660.5 433.311H615.553V438.813H660.5V433.311Z" fill="white"/>
<path opacity="0.4" d="M660.5 441.564H615.553V447.066H660.5V441.564Z" fill="white"/>
<path opacity="0.4" d="M660.5 449.817H615.553V455.319H660.5V449.817Z" fill="white"/>
<path opacity="0.4" d="M543.088 455.319H498.142V460.821H543.088V455.319Z" fill="white"/>
<path opacity="0.4" d="M543.088 463.572H498.142V469.073H543.088V463.572Z" fill="white"/>
<path opacity="0.4" d="M543.088 471.824H498.142V477.326H543.088V471.824Z" fill="white"/>
<path opacity="0.4" d="M571.982 373.708H559.599V389.755H571.982V373.708Z" fill="white"/>
<path opacity="0.4" d="M586.659 389.755H599.042V373.708H586.659V389.755Z" fill="white"/>
<path opacity="0.4" d="M571.982 399.384H559.599V415.431H571.982V399.384Z" fill="white"/>
<path opacity="0.4" d="M586.659 415.431H599.042V399.384H586.659V415.431Z" fill="white"/>
<path opacity="0.4" d="M571.982 425.059H559.599V441.106H571.982V425.059Z" fill="white"/>
<path opacity="0.4" d="M586.659 441.106H599.042V425.059H586.659V441.106Z" fill="white"/>
<path opacity="0.4" d="M571.982 450.734H559.599V466.781H571.982V450.734Z" fill="white"/>
<path opacity="0.4" d="M586.659 466.781H599.042V450.734H586.659V466.781Z" fill="white"/>
<path opacity="0.4" d="M683.89 287.513H667.379V308.603H683.89V287.513Z" fill="white"/>
<path opacity="0.4" d="M683.89 317.773H667.379V338.863H683.89V317.773Z" fill="white"/>
<path opacity="0.4" d="M683.89 348.033H667.379V369.123H683.89V348.033Z" fill="white"/>
<path opacity="0.4" d="M683.89 378.293H667.379V399.384H683.89V378.293Z" fill="white"/>
<path opacity="0.4" d="M683.89 408.553H667.379V429.644H683.89V408.553Z" fill="white"/>
<path opacity="0.4" d="M683.89 438.813H667.379V459.904H683.89V438.813Z" fill="white"/>
<path opacity="0.4" d="M780.892 330.611H719.435V348.492H780.892V330.611Z" fill="white"/>
<path opacity="0.4" d="M781.122 369.123H719.664V387.004H781.122V369.123Z" fill="white"/>
<path opacity="0.4" d="M781.351 407.636H719.893V425.517H781.351V407.636Z" fill="white"/>
<path opacity="0.4" d="M781.58 446.149H720.122V464.03H781.58V446.149Z" fill="white"/>
<path opacity="0.4" d="M433.015 293.473H424.759V310.896H433.015V293.473Z" fill="white"/>
<path opacity="0.4" d="M849 373.708H828.361V400.301H849V373.708Z" fill="white"/>
<path opacity="0.4" d="M849 412.221H828.361V438.813H849V412.221Z" fill="white"/>
<path opacity="0.4" d="M849 450.734H828.361V477.326H849V450.734Z" fill="white"/>
<path d="M808.145 412.794C811.52 416.072 827.256 419.47 827.256 419.47C827.256 419.47 823.404 403.849 820.028 400.566C818.406 398.991 816.224 398.124 813.963 398.157C811.702 398.19 809.546 399.119 807.97 400.741C806.395 402.362 805.528 404.543 805.56 406.804C805.593 409.064 806.523 411.219 808.145 412.794V412.794Z" fill="#76B220"/>
<path d="M799.238 452.224C803.444 454.342 819.468 452.88 819.468 452.88C819.468 452.88 811.117 439.125 806.911 437.007C804.9 436.057 802.598 435.929 800.495 436.652C798.392 437.375 796.654 438.891 795.653 440.876C794.652 442.861 794.467 445.159 795.136 447.279C795.806 449.399 797.278 451.173 799.238 452.224V452.224Z" fill="#76B220"/>
<path d="M795.803 491.727C799.586 494.524 815.634 495.789 815.634 495.789C815.634 495.789 809.727 480.824 805.943 478.023C804.124 476.7 801.856 476.15 799.632 476.491C797.409 476.833 795.411 478.039 794.073 479.847C792.735 481.655 792.166 483.918 792.49 486.143C792.814 488.368 794.005 490.376 795.803 491.727V491.727Z" fill="#76B220"/>
<path d="M773.425 436.282C773.425 438.813 768.839 446.145 768.839 446.145C768.839 446.145 764.253 438.809 764.253 436.282C764.253 435.066 764.736 433.9 765.596 433.041C766.456 432.181 767.623 431.698 768.839 431.698C770.055 431.698 771.222 432.181 772.082 433.041C772.942 433.9 773.425 435.066 773.425 436.282Z" fill="#76B220"/>
<path d="M780.668 474.231C778.407 475.368 769.793 474.584 769.793 474.584C769.793 474.584 774.283 467.194 776.54 466.057C777.617 465.57 778.841 465.518 779.956 465.912C781.071 466.305 781.991 467.114 782.523 468.17C783.056 469.225 783.16 470.445 782.814 471.575C782.468 472.706 781.699 473.659 780.668 474.236V474.231Z" fill="#76B220"/>
<path d="M776.333 492.291C774.297 493.795 765.674 494.474 765.674 494.474C765.674 494.474 768.848 486.432 770.885 484.928C771.864 484.274 773.058 484.023 774.219 484.225C775.379 484.428 776.417 485.069 777.117 486.015C777.818 486.962 778.127 488.142 777.981 489.31C777.835 490.478 777.245 491.546 776.333 492.291V492.291Z" fill="#76B220"/>
<path opacity="0.1" d="M532.393 270.861H529.237C529.536 270.874 529.834 270.827 530.114 270.722C530.393 270.618 530.649 270.457 530.865 270.251C531.081 270.045 531.253 269.797 531.37 269.522C531.488 269.247 531.548 268.952 531.548 268.653C531.548 268.354 531.488 268.059 531.37 267.784C531.253 267.51 531.081 267.262 530.865 267.055C530.649 266.849 530.393 266.688 530.114 266.584C529.834 266.479 529.536 266.432 529.237 266.445H503.677C503.109 266.471 502.573 266.715 502.18 267.126C501.787 267.538 501.567 268.084 501.567 268.653C501.567 269.222 501.787 269.768 502.18 270.18C502.573 270.591 503.109 270.835 503.677 270.861H506.833C506.534 270.847 506.236 270.894 505.956 270.999C505.676 271.104 505.421 271.264 505.205 271.47C504.989 271.677 504.817 271.925 504.699 272.199C504.582 272.474 504.521 272.77 504.521 273.068C504.521 273.367 504.582 273.663 504.699 273.937C504.817 274.212 504.989 274.46 505.205 274.666C505.421 274.872 505.676 275.033 505.956 275.138C506.236 275.242 506.534 275.289 506.833 275.276H502.416C502.117 275.262 501.819 275.309 501.54 275.414C501.26 275.519 501.004 275.679 500.788 275.886C500.572 276.092 500.4 276.34 500.283 276.615C500.165 276.889 500.105 277.185 500.105 277.483C500.105 277.782 500.165 278.078 500.283 278.352C500.4 278.627 500.572 278.875 500.788 279.081C501.004 279.288 501.26 279.448 501.54 279.553C501.819 279.658 502.117 279.705 502.416 279.691H527.976C528.274 279.705 528.573 279.658 528.852 279.553C529.132 279.448 529.388 279.288 529.604 279.081C529.82 278.875 529.992 278.627 530.109 278.352C530.227 278.078 530.287 277.782 530.287 277.483C530.287 277.185 530.227 276.889 530.109 276.615C529.992 276.34 529.82 276.092 529.604 275.886C529.388 275.679 529.132 275.519 528.852 275.414C528.573 275.309 528.274 275.262 527.976 275.276H532.393C532.691 275.289 532.989 275.242 533.269 275.138C533.549 275.033 533.804 274.872 534.02 274.666C534.236 274.46 534.408 274.212 534.526 273.937C534.643 273.663 534.704 273.367 534.704 273.068C534.704 272.77 534.643 272.474 534.526 272.199C534.408 271.925 534.236 271.677 534.02 271.47C533.804 271.264 533.549 271.104 533.269 270.999C532.989 270.894 532.691 270.847 532.393 270.861V270.861Z" fill="#252223"/>
<path opacity="0.1" d="M645.218 326.337H642.062C642.361 326.351 642.659 326.304 642.939 326.199C643.218 326.094 643.474 325.934 643.69 325.728C643.906 325.521 644.078 325.273 644.196 324.999C644.313 324.724 644.374 324.429 644.374 324.13C644.374 323.831 644.313 323.536 644.196 323.261C644.078 322.986 643.906 322.738 643.69 322.532C643.474 322.326 643.218 322.165 642.939 322.06C642.659 321.956 642.361 321.909 642.062 321.922H616.502C615.934 321.948 615.398 322.192 615.005 322.603C614.612 323.014 614.392 323.561 614.392 324.13C614.392 324.699 614.612 325.245 615.005 325.656C615.398 326.068 615.934 326.312 616.502 326.337H619.658C619.359 326.324 619.061 326.371 618.781 326.476C618.502 326.58 618.246 326.741 618.03 326.947C617.814 327.154 617.642 327.402 617.524 327.676C617.407 327.951 617.346 328.246 617.346 328.545C617.346 328.844 617.407 329.139 617.524 329.414C617.642 329.689 617.814 329.937 618.03 330.143C618.246 330.349 618.502 330.51 618.781 330.614C619.061 330.719 619.359 330.766 619.658 330.753H615.241C614.943 330.739 614.644 330.786 614.365 330.891C614.085 330.996 613.829 331.156 613.613 331.362C613.397 331.569 613.225 331.817 613.108 332.091C612.99 332.366 612.93 332.662 612.93 332.96C612.93 333.259 612.99 333.555 613.108 333.829C613.225 334.104 613.397 334.352 613.613 334.558C613.829 334.764 614.085 334.925 614.365 335.03C614.644 335.134 614.943 335.181 615.241 335.168H640.801C641.099 335.181 641.398 335.134 641.677 335.03C641.957 334.925 642.213 334.764 642.429 334.558C642.645 334.352 642.817 334.104 642.934 333.829C643.052 333.555 643.112 333.259 643.112 332.96C643.112 332.662 643.052 332.366 642.934 332.091C642.817 331.817 642.645 331.569 642.429 331.362C642.213 331.156 641.957 330.996 641.677 330.891C641.398 330.786 641.099 330.739 640.801 330.753H645.218C645.516 330.766 645.814 330.719 646.094 330.614C646.374 330.51 646.629 330.349 646.845 330.143C647.062 329.937 647.233 329.689 647.351 329.414C647.468 329.139 647.529 328.844 647.529 328.545C647.529 328.246 647.468 327.951 647.351 327.676C647.233 327.402 647.062 327.154 646.845 326.947C646.629 326.741 646.374 326.58 646.094 326.476C645.814 326.371 645.516 326.324 645.218 326.337V326.337Z" fill="#252223"/>
<g opacity="0.1">
<path opacity="0.1" d="M640.984 457.208C640.984 457.208 636.398 454.489 636.591 449.872L630.945 422.477C630.945 422.477 636.448 417.177 633.366 410.557C633.21 410.218 633.03 409.875 632.825 409.53C630.798 406.082 626.01 405.238 621.621 405.289C625.831 405.326 630.261 406.247 632.197 409.53C632.402 409.875 632.582 410.218 632.738 410.557C635.806 417.196 630.316 422.477 630.316 422.477L635.962 449.886C635.751 454.471 640.356 457.222 640.356 457.222C644.75 463.076 660.435 506.151 660.435 506.151L640.888 509.292C640.888 509.324 640.888 509.361 640.888 509.393L661.068 506.151C661.068 506.151 645.378 463.063 640.984 457.208Z" fill="black"/>
</g>
<g opacity="0.1">
<path opacity="0.1" d="M611.411 401.823C621.781 401.946 634.696 408.186 634.696 408.186C633.219 416.673 628.225 418.938 618.185 428.768C608.145 438.598 598.101 463.686 598.101 463.686C598.73 468.271 591.41 497.981 588.268 500.906C585.516 503.455 585.819 507.742 585.934 508.815L586.594 509.063C586.594 509.063 585.759 503.836 588.887 500.906C592.015 497.976 599.358 468.271 598.73 463.686C598.73 463.686 608.769 438.593 618.809 428.763C628.848 418.933 633.848 416.668 635.32 408.182C635.324 408.209 621.877 401.694 611.411 401.823Z" fill="black"/>
</g>
<g opacity="0.1">
<path opacity="0.1" d="M594.125 371.888L590.154 375.446L596.01 382.763L594.125 371.888Z" fill="black"/>
</g>
<g opacity="0.1">
<path opacity="0.1" d="M605.871 330.267C605.871 330.267 596.35 338.423 600.336 340.72L593.915 356.611L596.13 414.743L605.206 399.686L599.005 367.065C599.005 367.065 597.235 347.616 602.326 343.017L607.197 333.389L605.871 330.267Z" fill="black"/>
</g>
<g opacity="0.1">
<path opacity="0.1" d="M636.068 335.819C636.068 335.819 657.298 359.972 654.372 371.471C654.372 371.471 643.493 368.963 640.567 372.305C640.567 372.305 638.274 364.566 631.362 360.178C624.45 355.791 618.075 327.662 636.068 335.819Z" fill="black"/>
</g>
<g opacity="0.1">
<path opacity="0.1" d="M604.27 318.043C608.313 318.043 611.59 314.767 611.59 310.726C611.59 306.685 608.313 303.409 604.27 303.409C600.228 303.409 596.951 306.685 596.951 310.726C596.951 314.767 600.228 318.043 604.27 318.043Z" fill="black"/>
</g>
<g opacity="0.1">
<path opacity="0.1" d="M562.888 389.787L562.884 389.789C561.116 390.641 560.374 392.765 561.226 394.533L565.68 403.767C566.532 405.535 568.657 406.277 570.425 405.425L570.429 405.423C572.198 404.571 572.94 402.447 572.087 400.679L567.634 391.445C566.781 389.677 564.657 388.935 562.888 389.787Z" fill="black"/>
</g>
</g>
<ellipse cx="400.715" cy="436.715" rx="22.6294" ry="22.6294" transform="rotate(-105 400.715 436.715)" fill="url(#paint0_radial)"/>
<circle cx="444.438" cy="27.4381" r="27.4381" fill="url(#paint1_radial)"/>
<circle cx="228.852" cy="497.852" r="28.8525" fill="url(#paint2_radial)"/>
<defs>
<radialGradient id="paint0_radial" cx="0" cy="0" r="1" gradientUnits="userSpaceOnUse" gradientTransform="translate(408.319 424.767) rotate(102.402) scale(35.4038)">
<stop stop-color="#D7FF9E"/>
<stop offset="1" stop-color="#76B220"/>
</radialGradient>
<radialGradient id="paint1_radial" cx="0" cy="0" r="1" gradientUnits="userSpaceOnUse" gradientTransform="translate(424.072 27.721) scale(47.8046)">
<stop stop-color="#76B220" stop-opacity="0.34"/>
<stop offset="1" stop-color="#76B220"/>
</radialGradient>
<radialGradient id="paint2_radial" cx="0" cy="0" r="1" gradientUnits="userSpaceOnUse" gradientTransform="translate(221.26 486.843) rotate(79.2157) scale(40.5786)">
<stop stop-color="#F3F3F3"/>
<stop offset="1" stop-color="#444549"/>
</radialGradient>
<clipPath id="clip0">
<rect width="438" height="312" fill="white" transform="translate(411 249)"/>
</clipPath>
</defs>
</svg>
